{"title":"Scent of a Woman-720p MP4 AAC x264 BRRip 1992-CC","uid":7492081,"size":3049117995,"categoryP":"video","categoryS":"hd___movies","magnet":"?xt=urn:btih:22edd77fdc0bc836b71edee988de8c8ac5edc69c&amp;dn=Scent+of+a+Woman-720p+MP4+AAC+x264+BRRip+1992-CC&amp;tr=udp%3A%2F%2Ftracker.openbittorrent.com%3A80&amp;tr=udp%3A%2F%2Fopen.demonii.com%3A1337&amp;tr=udp%3A%2F%2Ftracker.coppersurfer.tk%3A6969&amp;tr=udp%3A%2F%2Fexodus.desync.com%3A6969","seeders":5,"leechers":3,"uploader":"Caveman44","files":-1,"time":1343772185,"description":" &lt;a href=&quot;http://www.imdb.com/title/tt0105323/&quot; rel=&quot;nofollow&quot; target=&quot;_NEW&quot;&gt;http://www.imdb.com/title/tt0105323/&lt;/a&gt; \n\nSource: Scent.of.a.Woman.1992.720p.BluRay.x264-EbP\n\nSubs: Arabic, Brazilian, Croatian, Danish, Dutch, English, Finnish, French, German, Greek, Norwegian, Polish, Portuguese, Spanish, Swedish, Turkish and Vietnamese.\n\nSample and Screens included.\n\nGeneral\nComplete name                    : Scent of a Woman-720p MP4 AAC x264 BRRip 1992-CC.mp4\nFormat                           : MPEG-4\nFormat profile                   : Base Media\nCodec ID                         : isom\nFile size                        : 2.80 GiB\nDuration                         : 2h 36mn\nOverall bit rate                 : 2 565 Kbps\nEncoded date                     : UTC 2012-07-28 11:10:55\n\nVideo\nID                               : 1\nFormat                           : AVC\nFormat/Info                      : Advanced Video Codec\nFormat profile                   : &lt;a class=&quot;__cf_email__&quot; href=&quot;/cdn-cgi/l/email-protection&quot; data-cfemail=&quot;652d0c020d2529564b54&quot;&gt;[email&amp;#160;protected]&lt;/a&gt;&lt;script cf-hash='f9e31' type=&quot;text/javascript&quot;&gt;\n/* &lt;![CDATA[ */!function(){try{var t=&quot;currentScript&quot;in document?document.currentScript:function(){for(var t=document.getElementsByTagName(&quot;script&quot;),e=t.length;e--;)if(t[e].getAttribute(&quot;cf-hash&quot;))return t[e]}();if(t&amp;&amp;t.previousSibling){var e,r,n,i,c=t.previousSibling,a=c.getAttribute(&quot;data-cfemail&quot;);if(a){for(e=&quot;&quot;,r=parseInt(a.substr(0,2),16),n=2;a.length-n;n+=2)i=parseInt(a.substr(n,2),16)^r,e+=String.fromCharCode(i);e=document.createTextNode(e),c.parentNode.replaceChild(e,c)}}}catch(u){}}();/* ]]&gt; */&lt;/script&gt;\nFormat settings, CABAC           : Yes\nFormat settings, ReFrames        : 5 frames\nCodec ID                         : avc1\nCodec ID/Info                    : Advanced Video Coding\nDuration                         : 2h 36mn\nBit rate mode                    : Variable\nBit rate                         : 2 176 Kbps\nNominal bit rate                 : 2 195 Kbps\nMaximum bit rate                 : 34.1 Mbps\nWidth                            : 1 280 pixels\nHeight                           : 688 pixels\nDisplay aspect ratio             : 16:9\nFrame rate mode                  : Variable\nFrame rate                       : 23.976 fps\nMinimum frame rate               : 23.810 fps\nMaximum frame rate               : 24.390 fps\nResolution                       : 24 bits\nColorimetry                      : 4:2:0\nScan type                        : Progressive\nBits/(Pixel*Frame)               : 0.103\nStream size                      : 2.38 GiB (85%)\nWriting library                  : x264 core 112\n\nAudio\nID                               : 2\nFormat                           : AAC\nFormat/Info                      : Advanced Audio Codec\nFormat version                   : Version 4\nFormat profile                   : LC\nFormat settings, SBR             : No\nCodec ID                         : 40\nDuration                         : 2h 36mn\nBit rate mode                    : Variable\nBit rate                         : 384 Kbps\nMaximum bit rate                 : 584 Kbps\nChannel(s)                       : 6 channels\nChannel positions                : Front: L C R, Rear: L R, LFE\nSampling rate                    : 48.0 KHz\nResolution                       : 16 bits\nStream size                      : 430 MiB (15%)\nLanguage                         : English\n\nEnjoy...\n\nRequested by cmptrluvr's.","torrent":{"xt":"urn:btih:22edd77fdc0bc836b71edee988de8c8ac5edc69c","amp;dn":"Scent+of+a+Woman-720p+MP4+AAC+x264+BRRip+1992-CC","amp;tr":["udp%3A%2F%2Ftracker.openbittorrent.com%3A80","udp%3A%2F%2Fopen.demonii.com%3A1337","udp%3A%2F%2Ftracker.coppersurfer.tk%3A6969","udp%3A%2F%2Fexodus.desync.com%3A6969"],"infoHash":"22edd77fdc0bc836b71edee988de8c8ac5edc69c","infoHashBuffer":{"type":"Buffer","data":[34,237,215,127,220,11,200,54,183,30,222,233,136,222,140,138,197,237,198,156]},"announce":[],"urlList":[]}}